<?xml version="1.0" encoding="UTF-8" standalone="no"?>
<!DOCTYPE svg PUBLIC "-//W3C//DTD SVG 1.1//EN" "http://www.w3.org/Graphics/SVG/1.1/DTD/svg11.dtd">
<svg width="100%" height="100%" viewBox="0 0 1000 1000" version="1.1" xmlns="http://www.w3.org/2000/svg" xmlns:xlink="http://www.w3.org/1999/xlink" xml:space="preserve" xmlns:serif="http://www.serif.com/" style="fill-rule:evenodd;clip-rule:evenodd;stroke-linejoin:round;stroke-miterlimit:2;">
    <g transform="matrix(2.5119e-15,40.6135,-48.4202,2.98588e-15,3689.01,-1155.6)">
        <path d="M40.765,57.29L49.614,61.576L49.614,70.147L40.765,74.432L31.915,70.147L31.915,61.576L40.765,57.29Z" style="fill:rgb(37,37,37);"/>
    </g>
    <g transform="matrix(1.67292e-15,27.0486,-32.2478,1.98859e-15,2623.88,-602.626)">
        <path d="M40.765,57.29L49.614,61.576L49.614,70.147L40.765,74.432L31.915,70.147L31.915,61.576L40.765,57.29Z" style="fill:rgb(86,86,86);"/>
    </g>
    <g transform="matrix(9.77279,0.0158819,-0.0157169,9.67129,1.32528,19.7957)">
        <path d="M46.245,51.621L42.161,41.959L39.657,35.739C38.779,33.577 37.703,31.194 36.43,28.591C34.761,25.018 33.773,22.9 33.465,22.238C31.05,16.591 28.656,13.767 26.285,13.767C21.981,13.767 18.336,17.937 15.349,26.275C13.944,25.922 13.241,24.996 13.241,23.496C13.241,19.304 15.261,14.804 19.302,9.995C23.342,5.186 27.163,2.782 30.764,2.782C33.619,2.782 36.188,4.436 38.472,7.745C40.755,11.054 44.071,17.937 48.419,28.393L53.623,40.967L55.863,36.996L60.079,29.518C70.18,11.738 80.303,2.848 90.448,2.848C93.83,2.848 97.014,3.554 100,4.966L90.514,14.495C88.669,13.437 87.066,12.907 85.705,12.907C81.708,12.907 77.734,15.113 73.781,19.525C69.829,23.937 64.646,31.944 58.235,43.548L56.192,47.254L61.462,59.96L64.427,66.71L67.26,73.394C71.212,82.791 74.879,87.49 78.261,87.49C83.18,87.49 86.759,83.696 88.999,76.107C90.624,76.813 91.436,77.762 91.436,78.953C91.436,80.894 90.119,83.916 87.484,88.019C83.531,94.152 79.051,97.218 74.045,97.218C70.444,97.218 67.227,95.233 64.394,91.262C61.561,87.291 57.576,79.152 52.437,66.842L48.814,58.041L47.365,60.886C34.761,85.108 21.981,97.218 9.025,97.218C6.258,97.218 3.25,96.468 0,94.968L9.684,85.505C11.397,86.431 13.241,86.894 15.217,86.894C20.971,86.894 26.943,82.482 33.136,73.659C38.318,66.335 42.249,59.872 44.928,54.268L46.245,51.621Z" style="fill:rgb(90,143,226);fill-rule:nonzero;"/>
    </g>
</svg>
