<?xml version="1.0" standalone="no"?>
<!DOCTYPE svg PUBLIC "-//W3C//DTD SVG 20010904//EN"
 "http://www.w3.org/TR/2001/REC-SVG-20010904/DTD/svg10.dtd">
<svg version="1.0" xmlns="http://www.w3.org/2000/svg"
 width="700.000000pt" height="700.000000pt" viewBox="0 0 700.000000 700.000000"
 preserveAspectRatio="xMidYMid meet">
<metadata>
Created by potrace 1.14, written by Peter Selinger 2001-2017
</metadata>
<g transform="translate(0.000000,700.000000) scale(0.100000,-0.100000)"
fill="#000000" stroke="none">
<path d="M1975 6652 c-162 -41 -325 -143 -495 -312 -129 -128 -147 -148 -241
-270 -161 -211 -254 -393 -300 -589 -24 -98 -32 -225 -18 -277 13 -45 54 -90
100 -108 l35 -15 38 97 c59 149 203 426 235 452 3 3 18 21 33 41 149 200 384
301 541 231 116 -52 255 -239 372 -502 18 -41 97 -210 175 -375 181 -381 191
-405 251 -550 28 -66 54 -129 59 -140 5 -11 43 -103 84 -205 41 -102 131 -316
199 -476 l124 -292 -72 -143 c-97 -194 -170 -331 -217 -408 -21 -34 -38 -65
-38 -67 0 -22 -368 -588 -531 -815 -314 -439 -581 -704 -847 -839 -107 -54
-166 -76 -257 -95 -165 -34 -345 -14 -497 54 l-47 21 -29 -27 c-16 -16 -130
-125 -253 -244 -123 -119 -259 -250 -302 -291 l-78 -75 58 -26 c87 -38 237
-86 338 -106 70 -14 126 -18 250 -16 88 2 174 6 190 9 52 11 79 16 110 22 71
12 279 90 388 144 253 127 487 307 748 575 90 93 100 104 222 250 139 166 191
235 358 476 88 126 261 398 327 516 20 35 42 72 47 81 26 45 198 358 245 447
29 55 55 103 59 107 4 4 53 -106 111 -245 99 -241 232 -557 270 -642 10 -22
41 -94 70 -160 29 -66 69 -156 90 -200 20 -44 57 -123 80 -175 129 -282 325
-641 438 -805 111 -160 290 -313 431 -369 113 -44 279 -55 411 -26 291 65 567
304 804 698 186 310 244 496 186 599 -23 41 -128 120 -140 106 -4 -5 -17 -42
-30 -83 -13 -41 -27 -82 -31 -90 -5 -8 -26 -54 -47 -102 -78 -169 -188 -311
-302 -387 -104 -70 -188 -96 -310 -95 -84 0 -101 3 -145 26 -157 83 -306 272
-469 595 -80 158 -89 178 -269 598 -80 187 -159 369 -175 405 -48 104 -98 220
-194 450 -99 238 -183 439 -203 485 -7 17 -25 60 -40 96 l-27 66 64 114 c36
63 77 137 93 164 164 298 420 722 600 995 403 614 704 908 1030 1009 92 29
134 35 230 35 92 -1 170 -21 268 -70 l67 -34 326 323 325 322 -43 18 c-136 58
-286 97 -443 116 -73 9 -311 7 -355 -3 -14 -3 -50 -11 -80 -17 -214 -44 -471
-176 -708 -366 -105 -84 -306 -280 -403 -393 -35 -41 -66 -77 -70 -80 -14 -13
-182 -236 -246 -326 -171 -242 -291 -437 -608 -994 -115 -201 -212 -369 -216
-374 -5 -6 -15 5 -23 25 -111 270 -362 874 -376 904 -10 22 -52 119 -93 215
-41 96 -89 207 -107 245 -18 39 -61 133 -97 210 -79 172 -205 415 -277 534
-212 354 -452 493 -731 423z"/>
</g>
</svg>
