<?xml version="1.0" standalone="no"?>
<!DOCTYPE svg PUBLIC "-//W3C//DTD SVG 20010904//EN"
 "http://www.w3.org/TR/2001/REC-SVG-20010904/DTD/svg10.dtd">
<svg version="1.0" xmlns="http://www.w3.org/2000/svg"
 width="700.000000pt" height="700.000000pt" viewBox="0 0 700.000000 700.000000"
 preserveAspectRatio="xMidYMid meet">
<metadata>
Created by potrace 1.14, written by Peter Selinger 2001-2017
</metadata>
<g transform="translate(0.000000,700.000000) scale(0.100000,-0.100000)"
fill="#000000" stroke="none">
<path d="M0 3500 l0 -3500 3500 0 3500 0 0 3500 0 3500 -3500 0 -3500 0 0
-3500z m3519 2463 c88 -975 201 -1481 402 -1788 221 -339 583 -503 1405 -637
112 -18 204 -35 204 -38 0 -4 -39 -12 -87 -19 -163 -23 -467 -81 -608 -116
-517 -128 -771 -289 -959 -612 -163 -279 -281 -844 -357 -1715 -7 -76 -15
-138 -19 -138 -3 0 -12 62 -19 138 -87 970 -202 1481 -402 1787 -225 345 -594
508 -1456 646 -79 13 -143 26 -143 29 0 3 64 16 143 29 612 97 980 213 1207
381 373 277 531 764 646 2003 10 103 21 187 24 187 4 0 12 -62 19 -137z"/>
</g>
</svg>
